<svg id="Capa_1" enable-background="new 0 0 512 512" height="512" viewBox="0 0 512 512" width="512" xmlns="http://www.w3.org/2000/svg"><g><path d="m436 182h-360c-8.284 0-15 6.716-15 15s6.716 15 15 15h360c8.284 0 15-6.716 15-15s-6.716-15-15-15z"/><path d="m155.394 124.393c-5.858 5.858-5.858 15.355 0 21.213s15.356 5.857 21.213 0c25.057-25.054 26.118-55.102.042-81.172-13.762-13.988-13.748-24.897 0-38.87 5.816-5.861 5.803-15.328-.042-21.172-5.857-5.858-15.355-5.858-21.213 0-25.057 25.054-26.118 55.102-.042 81.172 13.728 13.954 13.767 24.878.042 38.829z"/><path d="m245.394 124.393c-5.858 5.858-5.858 15.355 0 21.213s15.356 5.857 21.213 0c25.057-25.054 26.118-55.102.042-81.172-13.762-13.988-13.748-24.897 0-38.87 5.816-5.861 5.803-15.328-.042-21.172-5.857-5.858-15.355-5.858-21.213 0-25.057 25.054-26.118 55.102-.042 81.172 13.728 13.954 13.767 24.878.042 38.829z"/><path d="m335.394 124.393c-5.858 5.858-5.858 15.355 0 21.213s15.356 5.857 21.213 0c25.057-25.054 26.118-55.102.042-81.172-13.762-13.988-13.748-24.897 0-38.87 5.816-5.861 5.803-15.328-.042-21.172-5.857-5.858-15.355-5.858-21.213 0-25.057 25.054-26.118 55.102-.042 81.172 13.728 13.954 13.767 24.878.042 38.829z"/><path d="m256 362c75.39 0 139.13-50.82 158.76-120h-317.52c19.63 69.18 83.37 120 158.76 120z"/><path d="m376 482h-17.29l-18.22-109.28c-9.15 4.42-18.69 8.15-28.56 11.11l6.36 38.17h-124.58l6.36-38.17c-9.87-2.96-19.41-6.69-28.56-11.11l-18.22 109.28h-17.29c-8.28 0-15 6.72-15 15s6.72 15 15 15h30c7.33 0 13.59-5.3 14.8-12.53l7.91-47.47h134.58l7.91 47.47c1.21 7.23 7.47 12.53 14.8 12.53h30c8.28 0 15-6.72 15-15s-6.72-15-15-15z"/></g></svg>